#!OML:ASF H:\ManfredObstacles\Project 1\Capture day 2\Session 1\male.ASF
:FULLY-SPECIFIED
:DEGREES
349
root 2.62552 9.74143 -0.150042 -167.743 -1.5363 171.226
lowerback 45.368 3.76188 -1.70649
upperback 20.892 -6.10095 1.62648
thorax 2.89749 -6.80372 4.46152
lowerneck -34.2117 0.745855 -5.86016
upperneck 23.3919 3.1264 2.95071
head 13.3416 1.24846 2.77143
rclavicle 5.1684e-014 -1.3418e-014
rhumerus 43.5794 11.3164 -67.1335
rradius 37.6635
rwrist 33.0974
rhand -19.6674 -12.1506
rfingers 7.12502
rthumb 6.66088 -42.0258
lclavicle 5.1684e-014 -1.3418e-014
lhumerus 29.8946 7.1644 68.8993
lradius 29.2685
lwrist -41.9258
lhand -6.5688 7.74666
lfingers 7.12502
lthumb 19.2855 36.8104
rfemur -86.4924 2.70734 25.8504
rtibia 127.545
rfoot -24.8849 -28.2976
rtoes -26.5344
lfemur -93.7789 3.11643 -28.9791
ltibia 120.814
lfoot -4.47982 17.8473
ltoes -4.0806
350
root 2.61356 9.68234 -0.229723 -167.958 -1.31295 171.077
lowerback 45.6585 3.53027 -1.39178
upperback 20.6064 -6.12391 1.26564
thorax 2.45009 -6.70246 3.98223
lowerneck -34.8269 0.762605 -5.71723
upperneck 23.9812 3.11355 3.00981
head 13.7008 1.24919 2.79968
rclavicle -8.18993e-014 3.97569e-016
rhumerus 44.067 10.996 -67.7064
rradius 36.6973
rwrist 33.7066
rhand -18.9372 -12.1133
rfingers 7.12502
rthumb 7.36575 -41.9651
lclavicle -8.18993e-014 3.97569e-016
lhumerus 30.049 6.69044 68.5652
lradius 29.4456
lwrist -41.5076
lhand -6.76657 7.84189
lfingers 7.12502
lthumb 19.0953 36.9245
rfemur -86.3191 2.50234 26.0312
rtibia 128.403
rfoot -25.2239 -28.394
rtoes -26.838
lfemur -93.668 3.16671 -29.4106
ltibia 121.169
lfoot -4.66881 18.405
ltoes -4.53887
351
root 2.60101 9.62036 -0.310001 -168.145 -1.08118 170.961
lowerback 45.8725 3.32662 -1.08987
upperback 20.3378 -6.1156 0.946939
thorax 2.04345 -6.59455 3.53842
lowerneck -35.4532 0.768302 -5.58874
upperneck 24.5312 3.09137 3.06248
head 14.0508 1.24489 2.82562
rclavicle 2.24627e-014 -2.31584e-014
rhumerus 44.5431 10.6542 -68.3128
rradius 35.7459
rwrist 34.2856
rhand -18.1101 -12.103
rfingers 7.12502
rthumb 8.16411 -41.9253
lclavicle 2.24627e-014 -2.31584e-014
lhumerus 30.2715 6.2848 68.3362
lradius 29.5521
lwrist -41.1288
lhand -6.90667 7.89699
lfingers 7.12502
lthumb 18.9606 36.9928
rfemur -86.1564 2.3487 26.2403
rtibia 129.271
rfoot -25.6806 -28.4819
rtoes -27.1238
lfemur -93.475 3.3116 -29.7627
ltibia 121.803
lfoot -5.22126 19.2098
ltoes -5.65268
352
root 2.5877 9.55437 -0.390652 -168.318 -0.855105 170.883
lowerback 45.7098 3.38917 -0.996312
upperback 20.2621 -5.92071 0.965035
thorax 1.9784 -6.47491 3.44661
lowerneck -35.8503 0.679147 -5.6427
upperneck 24.758 3.05012 2.97979
head 14.2247 1.20093 2.8061
rclavicle 8.74653e-015 -1.22004e-014
rhumerus 45.1891 10.1905 -68.5153
rradius 34.8426
rwrist 34.8152
rhand -17.2142 -12.1073
rfingers 7.12502
rthumb 9.02867 -41.8941
lclavicle 8.74653e-015 -1.22004e-014
lhumerus 30.8115 6.0784 68.7024
lradius 29.5259
lwrist -40.9819
lhand -7.01249 7.8965
lfingers 7.12502
lthumb 18.8588 37.0023
rfemur -85.9999 2.24421 26.4904
rtibia 130.158
rfoot -26.1323 -28.6508
rtoes -27.3709
lfemur -93.1818 3.52125 -30.0117
ltibia 122.657
lfoot -6.07684 20.1001
ltoes -6.98696
353
root 2.57407 9.48392 -0.471458 -168.47 -0.630124 170.841
lowerback 45.4343 3.48471 -0.953333
upperback 20.2259 -5.71483 1.04763
thorax 1.99371 -6.36506 3.43363
lowerneck -36.1226 0.597204 -5.76147
upperneck 24.8414 3.0423 2.8998
head 14.3112 1.16884 2.79766
rclavicle 9.0447e-015 -3.62037e-014
rhumerus 45.8395 9.77867 -68.7446
rradius 33.9698
rwrist 35.3744
rhand -16.3257 -12.1201
rfingers 7.12502
rthumb 9.8859 -41.868
lclavicle 9.0447e-015 -3.62037e-014
lhumerus 31.3937 6.05328 69.2301
lradius 29.4182
lwrist -41.0209
lhand -7.07328 7.84846
lfingers 7.12502
lthumb 18.8003 36.9599
rfemur -85.8584 2.21142 26.7772
rtibia 131.071
rfoot -26.5846 -28.8926
rtoes -27.6468
lfemur -92.8089 3.78657 -30.1472
ltibia 123.645
lfoot -7.15223 20.903
ltoes -8.81677
354
root 2.56065 9.41047 -0.551971 -168.611 -0.42936 170.825
lowerback 45.198 3.50194 -0.887642
upperback 20.1476 -5.58255 1.07826
thorax 1.95125 -6.27784 3.38641
lowerneck -36.3213 0.557205 -5.89043
upperneck 24.8881 3.07834 2.87097
head 14.3644 1.1638 2.81881
rclavicle -2.98674e-014 2.83641e-014
rhumerus 46.4213 9.48688 -69.1832
rradius 33.0805
rwrist 36.0837
rhand -15.5447 -12.1279
rfingers 7.12502
rthumb 10.6394 -41.8385
lclavicle -2.98674e-014 2.83641e-014
lhumerus 31.8958 6.17953 69.708
lradius 29.2322
lwrist -41.2207
lhand -7.07981 7.76597
lfingers 7.12502
lthumb 18.7941 36.878
rfemur -85.7331 2.21604 27.0918
rtibia 131.994
rfoot -26.9216 -29.2478
rtoes -27.9981
lfemur -92.3594 4.05398 -30.1683
ltibia 124.653
lfoot -8.30003 21.6403
ltoes -9.34091
355
root 2.54824 9.33513 -0.632056 -168.74 -0.259571 170.825
lowerback 45.0464 3.42592 -0.7745
upperback 20.0223 -5.53513 1.02364
thorax 1.83109 -6.21372 3.26374
lowerneck -36.5014 0.568222 -5.97981
upperneck 24.919 3.14341 2.90392
head 14.4044 1.18551 2.86475
rclavicle 2.24627e-014 2.90847e-014
rhumerus 46.9826 9.30136 -69.8007
rradius 32.1458
rwrist 36.8185
rhand -14.8854 -12.1453
rfingers 7.12502
rthumb 11.2753 -41.8223
lclavicle 2.24627e-014 2.90847e-014
lhumerus 32.3354 6.41609 70.0794
lradius 28.9863
lwrist -41.4754
lhand -7.03618 7.68994
lfingers 7.12502
lthumb 18.836 36.7979
rfemur -85.626 2.24047 27.4187
rtibia 132.914
rfoot -27.1625 -29.6769
rtoes -28.3701
lfemur -91.864 4.30416 -30.0929
ltibia 125.623
lfoot -9.55097 22.3556
ltoes -10.0469
356
root 2.5375 9.25967 -0.711633 -168.859 -0.131862 170.821
lowerback 44.9268 3.31136 -0.646967
upperback 19.8871 -5.5287 0.934049
thorax 1.69121 -6.1639 3.11341
lowerneck -36.695 0.610405 -5.97918
upperneck 24.917 3.20622 2.92675
head 14.4341 1.21456 2.89079
rclavicle 9.29318e-015 -3.98501e-015
rhumerus 47.5342 9.14871 -70.5369
rradius 31.1695
rwrist 37.4615
rhand -14.3433 -12.1673
rfingers 7.12502
rthumb 11.7981 -41.815
lclavicle 9.29318e-015 -3.98501e-015
lhumerus 32.7894 6.70271 70.3957
lradius 28.6615
lwrist -41.8073
lhand -6.96296 7.6194
lfingers 7.12502
lthumb 18.9064 36.7205
rfemur -85.5216 2.24304 27.7269
rtibia 133.825
rfoot -27.399 -30.0644
rtoes -28.6584
lfemur -91.3667 4.50222 -29.9488
ltibia 126.512
lfoot -10.8313 23.0361
ltoes -10.5539
357
root 2.52905 9.18591 -0.790977 -168.968 -0.0589609 170.818
lowerback 44.7921 3.19454 -0.512805
upperback 19.7744 -5.52971 0.851428
thorax 1.58201 -6.12039 2.9661
lowerneck -36.9421 0.659838 -5.87384
upperneck 24.903 3.23273 2.92341
head 14.4726 1.23471 2.88203
rclavicle 4.48787e-014 -1.00914e-014
rhumerus 48.1077 8.95896 -71.3164
rradius 30.1439
rwrist 38.0353
rhand -13.9346 -12.1858
rfingers 7.12502
rthumb 12.1921 -41.8105
lclavicle 4.48787e-014 -1.00914e-014
lhumerus 33.3219 6.97862 70.7052
lradius 28.2702
lwrist -42.083
lhand -6.85089 7.59933
lfingers 7.12502
lthumb 19.0142 36.6899
rfemur -85.4113 2.18898 28.0057
rtibia 134.702
rfoot -27.6541 -30.3491
rtoes -28.9027
lfemur -90.8938 4.62831 -29.7514
ltibia 127.312
lfoot -12.0249 23.6665
ltoes -10.8994
358
root 2.5231 9.11351 -0.870557 -169.08 -0.0444438 170.806
lowerback 44.6321 3.09977 -0.388298
upperback 19.7013 -5.52308 0.801061
thorax 1.52758 -6.08262 2.84895
lowerneck -37.223 0.707167 -5.67717
upperneck 24.8423 3.22178 2.87009
head 14.5016 1.24135 2.82876
rclavicle 1.0138e-014 -2.38852e-015
rhumerus 48.7032 8.70999 -72.1086
rradius 29.0895
rwrist 38.487
rhand -13.6162 -12.1941
rfingers 7.12502
rthumb 12.4991 -41.8003
lclavicle 1.0138e-014 -2.38852e-015
lhumerus 33.9587 7.23096 71.0447
lradius 27.8072
lwrist -42.3643
lhand -6.72663 7.61709
lfingers 7.12502
lthumb 19.1337 36.6959
rfemur -85.2555 2.06086 28.2685
rtibia 135.565
rfoot -27.9423 -30.568
rtoes -29.077
lfemur -90.4646 4.67876 -29.5315
ltibia 128.055
lfoot -13.0659 24.2133
ltoes -11.0899
359
root 2.51878 9.04148 -0.950944 -169.187 -0.0616958 170.786
lowerback 44.4346 3.04502 -0.460131
upperback 19.5957 -5.53541 0.865661
thorax 1.46457 -6.0778 2.95913
lowerneck -37.3028 0.814242 -5.49141
upperneck 24.7156 3.32398 2.70666
head 14.4617 1.27944 2.74971
rclavicle 2.7482e-014 -1.96362e-014
rhumerus 49.2332 8.69209 -72.819
rradius 28.0715
rwrist 38.8824
rhand -13.383 -12.219
rfingers 7.12502
rthumb 12.724 -41.8113
lclavicle 2.7482e-014 -1.96362e-014
lhumerus 34.4865 7.72392 71.5655
lradius 27.2809
lwrist -42.8059
lhand -6.60118 7.66036
lfingers 7.12502
lthumb 19.2544 36.7272
rfemur -85.0671 1.90061 28.5131
rtibia 136.421
rfoot -28.2643 -30.7493
rtoes -29.3493
lfemur -90.1199 4.68569 -29.3205
ltibia 128.798
lfoot -13.9164 24.6597
ltoes -11.1072
360
root 2.51576 8.97025 -1.0319 -169.308 -0.104349 170.772
lowerback 44.2728 2.96886 -0.490363
upperback 19.5002 -5.56735 0.901862
thorax 1.40162 -6.07904 3.02573
lowerneck -37.4199 0.919984 -5.25029
upperneck 24.6065 3.3936 2.54962
head 14.4394 1.30974 2.65903
rclavicle 5.07149e-014 -2.79168e-014
rhumerus 49.6684 8.59828 -73.738
rradius 27.0678
rwrist 39.4371
rhand -13.1958 -12.2482
rfingers 7.12502
rthumb 12.9044 -41.8292
lclavicle 5.07149e-014 -2.79168e-014
lhumerus 35.0589 8.20693 72.0605
lradius 26.7032
lwrist -43.3646
lhand -6.4804 7.72331
lfingers 7.12502
lthumb 19.3705 36.7785
rfemur -84.8248 1.72846 28.7613
rtibia 137.258
rfoot -28.5714 -30.9534
rtoes -29.714
lfemur -89.8536 4.6899 -29.1296
ltibia 129.584
lfoot -14.5623 24.9878
ltoes -10.9615
361
root 2.51324 8.89939 -1.11332 -169.442 -0.138815 170.768
lowerback 44.134 2.89651 -0.520014
upperback 19.4171 -5.60781 0.92831
thorax 1.34719 -6.08752 3.08425
lowerneck -37.4926 1.03664 -4.99173
upperneck 24.4655 3.46434 2.39463
head 14.3955 1.34363 2.56512
rclavicle -4.94725e-014 -1.74123e-014
rhumerus 50.0252 8.48508 -74.7846
rradius 26.1085
rwrist 40.0829
rhand -13.0343 -12.3202
rfingers 7.12502
rthumb 13.0601 -41.8913
lclavicle -4.94725e-014 -1.74123e-014
lhumerus 35.6645 8.74579 72.587
lradius 26.0763
lwrist -44.1143
lhand -6.36944 7.77178
lfingers 7.12502
lthumb 19.4772 36.8162
rfemur -84.5408 1.60038 29.0169
rtibia 138.078
rfoot -28.8645 -31.1869
rtoes -30.1125
lfemur -89.6775 4.75275 -28.9781
ltibia 130.445
lfoot -15.0223 25.184
ltoes -10.7083
362
root 2.5109 8.82925 -1.19508 -169.591 -0.15067 170.79
lowerback 44.0211 2.82875 -0.476891
upperback 19.3717 -5.63646 0.912726
thorax 1.32215 -6.08788 3.05499
lowerneck -37.6036 1.14007 -4.68149
upperneck 24.3182 3.48547 2.25035
head 14.3592 1.36336 2.45757
rclavicle 3.22031e-014 -1.49337e-014
rhumerus 50.3128 8.24995 -75.9978
rradius 25.1771
rwrist 40.8844
rhand -12.9094 -12.4546
rfingers 7.12502
rthumb 13.1805 -42.018
lclavicle 3.22031e-014 -1.49337e-014
lhumerus 36.3713 9.26962 73.1073
lradius 25.3886
lwrist -45.1679
lhand -6.30196 7.76319
lfingers 7.12502
lthumb 19.5421 36.8011
rfemur -84.221 1.56428 29.3046
rtibia 138.874
rfoot -29.0625 -31.498
rtoes -30.437
lfemur -89.5912 4.92646 -28.8555
ltibia 131.387
lfoot -15.3219 25.2305
ltoes -10.3839
